<?xml version="1.0" encoding="iso-8859-1"?>
<svg version="1.1" xmlns="http://www.w3.org/2000/svg" xmlns:xlink="http://www.w3.org/1999/xlink" x="0px" y="0px" viewBox="0 0 50 50" style="enable-background:new 0 0 50 50;" width="16px" height="16px;" xml:space="preserve">
<path d="m48.856,22.731c0.983,-0.958 1.33,-2.364 0.906,-3.671c-0.425,-1.307 -1.532,-2.24 -2.892,-2.438l-12.092,-1.757c-0.515,-0.075 -0.96,-0.398 -1.19,-0.865l-5.406,-10.957c-0.607,-1.231 -1.839,-1.996 -3.212,-1.996c-1.372,0 -2.604,0.765 -3.211,1.996l-5.407,10.957c-0.23,0.467 -0.676,0.79 -1.191,0.865l-12.092,1.758c-1.359,0.197 -2.466,1.13 -2.891,2.437c-0.424,1.307 -0.077,2.713 0.906,3.671l8.749,8.528c0.373,0.364 0.544,0.888 0.456,1.4l-2.065,12.043c-0.232,1.353 0.313,2.694 1.424,3.502c1.11,0.809 2.555,0.914 3.772,0.273l10.814,-5.686c0.461,-0.242 1.011,-0.242 1.472,0l10.815,5.686c0.528,0.278 1.1,0.415 1.669,0.415c0.739,0 1.475,-0.231 2.103,-0.688c1.111,-0.808 1.656,-2.149 1.424,-3.502l-2.066,-12.042c-0.088,-0.513 0.083,-1.036 0.456,-1.4l8.749,-8.529z" fill="gold" stroke="black"/>
</svg>
